<?xml version="1.0"?><svg width="640" height="480" xmlns="http://www.w3.org/2000/svg">
 <title>Puzzle Piece</title>

 <g>
  <title>Layer 1</title>
  <path d="m68.089096,296.472809c4.366013,4.067596 23.876152,16.224396 36.423012,-1.674927c12.546829,-17.898773 17.042641,-25.992859 29.690651,-28.296509c25.296143,-4.60791 27.11792,15.000763 30.018463,25.240112l1.571091,17.979736l0.755371,14.467255l0.226563,7.081635l0.226669,7.081635l-0.332428,12.578003l-1.540924,11.664368l-5.43837,19.488342l-6.526108,21.742889c102.725769,20.722412 114.05484,19.229218 128.49704,17.461609c7.220795,-0.883545 14.282227,-2.921967 19.267792,-6.050201c4.985535,-3.128204 7.894623,-9.175323 8.018982,-19.296112c0.249268,-20.241699 -45.844299,-24.96814 -47.096405,-40.150024c-0.288788,-3.503387 -0.332184,-8.184937 2.882965,-14.627472c11.789398,-13.298157 33.889771,-19.507355 53.592255,-20.189484c7.273743,-0.25174 14.113922,0.345703 20.092133,1.523895c0.265228,0.03009 0.545074,0.082275 0.810303,0.114197c17.000061,2.06485 34.244202,8.242676 44.194336,19.465637c17.1492,34.359497 -26.322174,26.722809 -31.221649,50.510864c-3.56958,17.331421 19.752289,33.961121 42.163086,29.522003l111.03598,-24.379303c-1.711761,-9.710693 -4.33078,-20.335602 -7.251434,-30.045685c-2.920563,-9.710754 -6.445496,-14.240662 -7.552917,-28.217285c-1.108093,-13.977264 -0.705078,-19.116272 0.301544,-28.826965c1.007324,-9.710114 2.046539,-20.65799 4.230072,-28.52182c2.183624,-7.863892 6.51123,-19.492676 25.483185,-16.03717c25.296326,4.607269 20.510925,43.743591 57.049622,27.617432c11.934692,-9.357056 18.504028,-25.573486 20.699768,-41.559052c0.034363,-0.249908 0.089172,-0.512726 0.121704,-0.761963c1.252808,-5.622223 1.887817,-12.054276 1.619934,-18.894012c-0.724792,-18.528076 -7.327881,-39.310043 -21.469116,-50.396698c-36.538696,-16.126175 -35.870605,22.008102 -48.892334,28.874237c-13.021057,6.866165 -20.243774,4.754684 -29.790344,1.959229c-4.773254,-1.398041 -7.257141,-4.566788 -9.033997,-8.660797c-1.776794,-4.094025 -2.845978,-10.637207 -4.789795,-21.830063c-1.943878,-11.192856 -1.017548,-15.833923 -0.752319,-25.789001c0.265869,-9.954453 3.193451,-20.042862 4.648987,-29.3311c1.454865,-9.288345 4.156097,-15.338745 6.98996,-26.360184c2.833954,-11.021545 7.612213,-20.614563 8.387482,-30.283752c-3.021301,-2.437988 -93.821075,-22.703316 -122.221619,-26.055458c-28.401154,-3.35215 -42.701202,20.20945 -30.550262,38.511772c12.150848,18.302307 48.672333,18.893738 31.523773,53.253662c-11.789398,13.298218 -33.889709,19.507401 -53.592285,20.188919c-7.273682,0.251755 -14.113892,-0.345016 -20.092102,-1.52327c-0.265198,-0.030716 -0.545105,-0.082275 -0.810333,-0.114197c-16.999969,-2.064804 -34.244812,-8.242676 -44.194275,-19.465668c-3.215759,-6.442505 -4.380524,-11.1241 -4.091736,-14.627594c1.252136,-15.181931 33.104889,-20.517609 44.034912,-38.016602c5.464996,-8.749519 6.158661,-14.695465 1.510345,-22.866249c-4.648285,-8.17078 -17.056122,-16.128574 -37.794708,-14.27417c-41.915726,8.532784 -82.623306,19.503494 -124.539185,28.036247l9.23024,16.525604l4.554657,7.470421c2.626083,5.436058 2.835083,5.996124 3.950455,8.384758l3.044006,7.165695l2.741867,6.556252l3.1875,15.977058l1.25386,13.478271l1.314285,16.768997l-1.163239,13.844025l-3.542511,8.750458c-1.583694,2.206009 -3.167358,4.411438 -4.751068,6.617447c-5.5466,6.589249 -10.063263,18.179962 -28.018951,14.909286c-25.296074,-4.607315 -26.553566,-43.743622 -63.092285,-27.617432c-11.9347,9.357056 -20.341118,30.715561 -21.424938,38.268127c-1.08382,7.552582 -1.951511,13.252167 -2.012714,17.578262c-0.029961,2.163055 -0.241623,1.937103 -0.167038,2.983948c0.075233,1.046204 -0.168316,1.90332 -0.021034,6.231888c0.146629,4.328568 0.583984,5.928589 0.575695,6.912781c-0.008926,0.984833 0.1409,1.474762 0.437359,2.852554c0.594181,2.755524 1.692028,9.299316 2.449429,11.447662c0.756756,2.147736 2.664661,7.457367 5.522884,13.594147c2.858219,6.136078 7.255211,12.02478 9.43821,14.058899z" stroke-width="6" stroke-linejoin="round" stroke="#000000" fill-rule="evenodd" fill="#ffffff" id="svg_7"/>
 </g>
</svg>